<svg xmlns="http://www.w3.org/2000/svg">
  <symbol id="link-out" viewBox="0 0 24 24">
    <path fill="none" stroke="currentColor" stroke-width="1.5" stroke-linecap="round" stroke-linejoin="round"
      d="M13.5 6H5.25A2.25 2.25 0 0 0 3 8.25v10.5A2.25 2.25 0 0 0 5.25 21h10.5A2.25 2.25 0 0 0 18 18.75V10.5m-10.5 6L21 3m0 0h-5.25M21 3v5.25" />
  </symbol>

  <symbol id="book" viewBox="0 0 24 24">
    <path fill="none" stroke="currentColor" stroke-width="1.5" stroke-linecap="round" stroke-linejoin="round"
      d="M12 6.042A8.967 8.967 0 0 0 6 3.75c-1.052 0-2.062.18-3 .512v14.25A8.987 8.987 0 0 1 6 18c2.305 0 4.408.867 6 2.292m0-14.25a8.966 8.966 0 0 1 6-2.292c1.052 0 2.062.18 3 .512v14.25A8.987 8.987 0 0 0 18 18a8.967 8.967 0 0 0-6 2.292m0-14.25v14.25" />
  </symbol>
</svg>
